<svg width="155" height="54" viewBox="0 0 155 54" fill="none" xmlns="http://www.w3.org/2000/svg">
<g clip-path="url(#clip0)">
<path fill-rule="evenodd" clip-rule="evenodd" d="M1 35.0294C1 44.402 8.61116 52 18 52C27.3888 52 35 44.402 35 35.0294C35 25.6569 1 25.6569 1 35.0294Z" fill="#C1CAFF"/>
<path d="M18.6377 13.6377H17.6377V35.3623H18.6377V13.6377Z" stroke="#412B4F" stroke-width="1.27536"/>
<path d="M28 2H36C36 8.07513 31.0751 13 25 13H17C17 6.92487 21.9249 2 28 2Z" fill="#D7CEFE"/>
<path fill-rule="evenodd" clip-rule="evenodd" d="M18.2271 11.8403H25C30.0426 11.8403 34.1993 8.04759 34.773 3.15918H28C22.9575 3.15918 18.8008 6.95193 18.2271 11.8403Z" stroke="#412B4F" stroke-width="2.31884"/>
<path d="M0 13H8C14.0751 13 19 17.9249 19 24H11C4.92487 24 0 19.0751 0 13Z" fill="#EEEBFF"/>
<path fill-rule="evenodd" clip-rule="evenodd" d="M1.22705 14.1592C1.8008 19.0476 5.9575 22.8403 11 22.8403H17.773C17.1993 17.9519 13.0426 14.1592 8.00005 14.1592H1.22705Z" stroke="#412B4F" stroke-width="2.31884"/>
</g>
<path fill-rule="evenodd" clip-rule="evenodd" d="M101 27.9396V26.0552C101.5 11.6032 113.415 0 127.992 0C142.885 0 155 12.1095 155 26.9973C155 41.8878 142.884 54 127.992 54C113.415 54 101.5 42.3954 101 27.9396ZM127.895 49.7976C140.524 49.7976 150.798 39.5251 150.798 26.8922C150.798 14.2661 140.524 3.99222 127.895 3.99222C115.265 3.99222 104.992 14.2661 104.992 26.8922C104.992 39.5251 115.265 49.7976 127.895 49.7976ZM143.444 19.4385C143.444 17.185 141.596 15.3412 139.36 15.3412V15.3385C137.217 15.3338 135.43 16.9732 135.249 19.1081V19.7637C135.431 21.8977 137.218 23.5364 139.36 23.533C141.614 23.5197 143.436 21.6925 143.444 19.4385ZM132.097 15.3385H127.895C125.593 15.3385 123.693 17.2066 123.693 19.4906V38.4514H127.895C130.201 38.4514 132.097 36.5332 132.097 34.249V19.1206V15.3385ZM120.531 34.207C120.526 34.1526 120.52 34.0963 120.52 34.034C120.347 31.9089 118.574 30.2707 116.444 30.2569C114.181 30.2569 112.346 32.0903 112.346 34.3519C112.346 36.6085 114.19 38.4514 116.444 38.4514C118.579 38.4418 120.351 36.7981 120.52 34.67C120.52 34.6155 120.526 34.5642 120.531 34.5131C120.536 34.462 120.541 34.4108 120.541 34.3561C120.541 34.3062 120.536 34.2574 120.531 34.207Z" fill="#F73859"/>
<rect x="75.3137" y="33.728" width="16" height="2" transform="rotate(-135 75.3137 33.728)" fill="#EAEAEA"/>
<rect x="76.728" y="22.4146" width="16" height="2" transform="rotate(135 76.728 22.4146)" fill="#EAEAEA"/>
<defs>
<clipPath id="clip0">
<rect y="2" width="36" height="50" fill="white"/>
</clipPath>
</defs>
</svg>
