<?xml version="1.0" encoding="UTF-8"?>
<svg width="450px" height="149px" viewBox="0 0 450 149" version="1.1" xmlns="http://www.w3.org/2000/svg" xmlns:xlink="http://www.w3.org/1999/xlink">
    <!-- Generator: Sketch 49.3 (51167) - http://www.bohemiancoding.com/sketch -->
    <title>Artboard 3</title>
    <desc>Created with Sketch.</desc>
    <defs>
        <path d="M77.1319664,0 L102.18578,0 L102.18578,0 C102.18578,16.1688909 89.0783044,29.2763668 72.9094135,29.2763668 L47.8555996,29.2763668 L47.8555996,29.2763668 C47.8555996,13.1074759 60.9630755,-5.82536603e-16 77.1319664,-3.55271368e-15 Z" id="path-1"></path>
        <path d="M21.4027985,26.179828 C39.5880895,26.179828 54.3301807,39.2873039 54.3301807,55.4561948 L32.9273822,55.4561948 C14.7420912,55.4561948 0,42.3487189 0,26.179828 L21.4027985,26.179828 Z" id="path-2"></path>
    </defs>
    <g id="Artboard-3" stroke="none" stroke-width="1" fill="none" fill-rule="evenodd">
        <path d="M221.785714,23.7053571 L221.785714,125.961203" id="Line" stroke="#F1F1F1" stroke-width="4.01785714" stroke-linecap="square"></path>
        <g id="Artboard-Copy-3" transform="translate(0.000000, 4.017857)">
            <g id="Group-2-Copy-5" transform="translate(19.142240, 1.689021)">
                <path d="M37.6535848,152.574912 C64.5874064,152.574912 86.4215828,131.023196 86.4215828,104.437808 C86.4215828,77.8524205 64.5874064,56.3007054 37.6535848,56.3007054 C10.7197633,56.3007054 10.7197633,152.574912 37.6535848,152.574912 Z" id="Oval-Copy-9" fill="#C1CAFF" transform="translate(51.937401, 104.437808) rotate(-270.000000) translate(-51.937401, -104.437808) "></path>
                <rect id="Rectangle-3" stroke="#412B4F" stroke-width="3.96900008" x="49.8400996" y="31.2608668" width="2.50558104" height="59.650797"></rect>
                <g id="Rectangle-4-Copy-15" transform="translate(.5, 0)">
                    <use fill="#D7CEFE" fill-rule="evenodd" xlink:href="#path-1"></use>
                    <path stroke="#412B4F" stroke-width="6.57391328" d="M51.3484313,25.9894102 L72.9094135,25.9894102 C86.1495764,25.9894102 97.0773063,16.0887074 98.6929485,3.28695664 L77.1319664,3.28695664 C63.8918035,3.28695664 52.9640735,13.1876594 51.3484313,25.9894102 Z"></path>
                </g>
                <g id="Rectangle-4-Copy-18" transform="translate(-.5, 0)">
                    <use fill="#F2F2FF" fill-rule="evenodd" xlink:href="#path-2"></use>
                    <path stroke="#412B4F" stroke-width="6.57391328" d="M3.52303161,29.4667846 C5.36462966,42.2000161 17.7602441,52.1692382 32.9273822,52.1692382 L50.8071491,52.1692382 C48.965551,39.4360067 36.5699366,29.4667846 21.4027985,29.4667846 L3.52303161,29.4667846 Z"></path>
                </g>
            </g>
        </g>
        <g id="slack" transform="translate(302.142857, 0.000000)" fill-rule="nonzero">
            <path d="M95.8438589,9.78985192 C93.5474739,2.90069686 86.1748693,-0.846036585 79.2857143,1.32948606 C72.3965592,3.62587108 68.6498258,10.9984756 70.8253484,17.8876307 L104.787674,122.312718 C107.084059,128.718423 114.094077,132.344294 120.741507,130.410497 C127.751524,128.355836 131.981707,120.983232 129.685322,114.214939 C129.685322,113.973214 95.8438589,9.78985192 95.8438589,9.78985192 Z" id="Shape" fill="#ECB32D"></path>
            <path d="M43.2687282,26.831446 C40.9723432,19.9422909 33.5997387,16.1955575 26.7105836,18.3710801 C19.8214286,20.6674652 16.0746951,28.0400697 18.2502178,34.9292247 L52.2125436,139.354312 C54.5089286,145.760017 61.518946,149.385889 68.1663763,147.452091 C75.1763937,145.39743 79.4065767,138.024826 77.1101916,131.256533 C77.1101916,131.014808 43.2687282,26.831446 43.2687282,26.831446 Z" id="Shape" fill="#63C1A0"></path>
            <path d="M138.629138,96.206446 C145.518293,93.910061 149.265026,86.5374564 147.089503,79.6483014 C144.793118,72.7591463 137.420514,69.0124129 130.531359,71.1879355 L25.9854094,105.271124 C19.5797038,107.567509 15.9538328,114.577526 17.8876307,121.224956 C19.9422909,128.234974 27.3148955,132.465157 34.0831882,130.168772 C34.3249129,130.168772 138.629138,96.206446 138.629138,96.206446 Z" id="Shape" fill="#E01A59"></path>
            <path d="M47.7406359,125.817726 C54.5089286,123.642204 63.3318815,120.741507 72.7591463,117.719948 C70.5836237,110.951655 67.6829268,102.128702 64.6613676,92.7014373 L39.6428571,100.799216 L47.7406359,125.817726 Z" id="Shape" fill="#331433"></path>
            <path d="M100.436629,108.65527 C109.863894,105.633711 118.686847,102.733014 125.455139,100.557491 C123.279617,93.7891986 120.37892,84.9662456 117.357361,75.5389808 L92.3388502,83.6367596 L100.436629,108.65527 Z" id="Shape" fill="#D62027"></path>
            <path d="M121.466681,43.6313153 C128.355836,41.3349303 132.10257,33.9623258 129.927047,27.0731707 C127.630662,20.1840157 120.258057,16.4372822 113.368902,18.6128049 L8.94381533,52.5751307 C2.53810976,54.8715157 -1.08776132,61.8815331 0.846036585,68.5289634 C2.90069686,75.5389808 10.2733014,79.7691638 17.0415941,77.4727787 C17.2833188,77.4727787 121.466681,43.6313153 121.466681,43.6313153 Z" id="Shape" fill="#89D3DF"></path>
            <path d="M30.6990418,73.1217334 C37.4673345,70.9462108 46.2902875,68.0455139 55.7175523,65.0239547 C52.695993,55.5966899 49.7952962,46.7737369 47.6197735,40.0054443 L22.6012631,48.103223 L30.6990418,73.1217334 Z" id="Shape" fill="#258B74"></path>
            <path d="M83.2741725,56.0801394 C92.7014373,53.0585801 101.52439,50.1578833 108.292683,47.9823606 C105.271124,38.5550958 102.370427,29.7321429 100.194904,22.9638502 L75.1763937,31.0616289 L83.2741725,56.0801394 Z" id="Shape" fill="#819C3C"></path>
        </g>
    </g>
</svg>
