<?xml version="1.0" encoding="UTF-8"?>
<svg width="38px" height="38px" viewBox="0 0 38 38" version="1.1" xmlns="http://www.w3.org/2000/svg" xmlns:xlink="http://www.w3.org/1999/xlink">
    <!-- Generator: Sketch 50.2 (55047) - http://www.bohemiancoding.com/sketch -->
    <title>Group 5 Copy</title>
    <desc>Created with Sketch.</desc>
    <defs></defs>
    <g id="intern.community" stroke="none" stroke-width="1" fill="none" fill-rule="evenodd">
        <g id="Group-5-Copy">
            <circle id="Oval-Copy" fill="#F4F4F4" cx="19" cy="19" r="19"></circle>
            <path d="M19.4934723,22.6656638 L16.9533122,22.6656638 C16.9279106,22.335443 16.902509,22.0560254 16.902509,21.7004029 C16.902509,20.1763069 17.4867458,18.9316284 18.9600387,17.8647612 L20.1285123,17.0265083 C20.9667652,16.4168699 21.3223876,15.6802235 21.3223876,14.8165691 C21.3223876,13.4956858 20.4333316,12.2510073 18.5790147,12.2510073 C16.6992962,12.2510073 15.7086338,13.6988986 15.7086338,15.1467899 C15.7086338,15.5278139 15.759437,16.0104443 15.8610434,16.2898619 L12.9906624,16.0866491 C12.889056,15.7310267 12.8382528,15.3246011 12.8382528,14.9181755 C12.8382528,12.3780153 14.7433729,9.60924083 18.5790147,9.60924083 C22.3384516,9.60924083 24.3705797,12.0985977 24.3705797,14.689561 C24.3705797,16.6962875 23.3037125,18.1187772 21.8304196,19.1602428 L20.7381508,19.9222909 C19.8998979,20.5065277 19.4680707,21.3447805 19.4680707,22.335443 C19.4680707,22.3862462 19.4680707,22.5132542 19.4934723,22.6656638 Z M16.394477,26.3234943 C16.394477,25.3074303 17.2073282,24.4437759 18.2487939,24.4437759 C19.2648579,24.4437759 20.1031107,25.3074303 20.1031107,26.3234943 C20.1031107,27.3395584 19.2648579,28.1778112 18.2487939,28.1778112 C17.2073282,28.1778112 16.394477,27.3395584 16.394477,26.3234943 Z" id="?-copy" fill="#412B4F"></path>
        </g>
    </g>
</svg>