<svg width="299" height="400" viewBox="0 0 299 400" fill="none" xmlns="http://www.w3.org/2000/svg">
<mask id="path-1-inside-1" fill="white">
<path fill-rule="evenodd" clip-rule="evenodd" d="M290.907 259.689V267.156L290.775 267.156C287.586 340.884 226.805 399.678 152.292 399.678C77.779 399.678 16.998 340.884 13.8091 267.156H13.6777V259.689C13.6777 180.283 290.907 180.283 290.907 259.689Z"/>
</mask>
<path fill-rule="evenodd" clip-rule="evenodd" d="M290.907 259.689V267.156L290.775 267.156C287.586 340.884 226.805 399.678 152.292 399.678C77.779 399.678 16.998 340.884 13.8091 267.156H13.6777V259.689C13.6777 180.283 290.907 180.283 290.907 259.689Z" fill="white"/>
<path d="M290.907 267.156L290.892 284.42L308.17 284.435V267.156H290.907ZM290.775 267.156L290.79 249.893L274.243 249.878L273.528 266.41L290.775 267.156ZM13.8091 267.156L31.0563 266.41L30.3419 249.893H13.8091V267.156ZM13.6777 267.156H-3.58561V284.42H13.6777V267.156ZM308.17 267.156V259.689H273.643V267.156H308.17ZM290.76 284.42L290.892 284.42L290.922 249.893L290.79 249.893L290.76 284.42ZM152.292 416.941C236.09 416.941 304.436 350.825 308.022 267.902L273.528 266.41C270.737 330.943 217.521 382.414 152.292 382.414V416.941ZM-3.4381 267.902C0.148507 350.825 68.4946 416.941 152.292 416.941V382.414C87.0634 382.414 33.8475 330.943 31.0563 266.41L-3.4381 267.902ZM13.6777 284.42H13.8091V249.893H13.6777V284.42ZM-3.58561 259.689V267.156H30.9411V259.689H-3.58561ZM308.17 259.689C308.17 228.103 280.765 209.214 253.749 198.896C225.175 187.983 188.27 182.871 152.292 182.871C116.315 182.871 79.4099 187.983 50.8356 198.896C23.8195 209.214 -3.58561 228.103 -3.58561 259.689H30.9411C30.9411 251.572 38.1896 240.684 63.1539 231.15C86.5601 222.211 118.962 217.398 152.292 217.398C185.622 217.398 218.024 222.211 241.431 231.15C266.395 240.684 273.643 251.572 273.643 259.689H308.17Z" fill="url(#paint0_linear)" mask="url(#path-1-inside-1)"/>
<path d="M146.413 149.613H84.7934C46.332 149.613 14.5966 120.816 9.97269 83.6062H71.5921C110.054 83.6062 141.789 112.404 146.413 149.613Z" fill="white" stroke="url(#paint1_linear)" stroke-width="18.7866"/>
<path d="M151.23 76.7365H213.707C252.851 76.7365 285.098 47.2053 289.385 9.20638H226.908C187.763 9.20638 155.516 38.7375 151.23 76.7365Z" fill="white" stroke="url(#paint2_linear)" stroke-width="17.2633"/>
<path d="M150.007 83.8604V267.156" stroke="url(#paint3_linear)" stroke-width="18.7866"/>
<defs>
<linearGradient id="paint0_linear" x1="152.292" y1="200.134" x2="152.292" y2="399.678" gradientUnits="userSpaceOnUse">
<stop stop-color="#AD99FF"/>
<stop offset="1" stop-color="#6A45FF"/>
</linearGradient>
<linearGradient id="paint1_linear" x1="58.6446" y1="-17.689" x2="193.197" y2="372.259" gradientUnits="userSpaceOnUse">
<stop stop-color="#AD99FF"/>
<stop offset="1" stop-color="#6A45FF"/>
</linearGradient>
<linearGradient id="paint2_linear" x1="82.7083" y1="-18.9735" x2="227.67" y2="383.415" gradientUnits="userSpaceOnUse">
<stop stop-color="#AD99FF"/>
<stop offset="1" stop-color="#6A45FF"/>
</linearGradient>
<linearGradient id="paint3_linear" x1="-10.9932" y1="-26.5742" x2="71.7622" y2="424.622" gradientUnits="userSpaceOnUse">
<stop stop-color="#AD99FF"/>
<stop offset="1" stop-color="#6A45FF"/>
</linearGradient>
</defs>
</svg>
