<?xml version="1.0" encoding="UTF-8"?>
<svg width="275px" height="468px" viewBox="0 0 275 468" version="1.1" xmlns="http://www.w3.org/2000/svg" xmlns:xlink="http://www.w3.org/1999/xlink">
    <!-- Generator: Sketch 49.2 (51160) - http://www.bohemiancoding.com/sketch -->
    <title>Group 2 Copy 2</title>
    <desc>Created with Sketch.</desc>
    <defs>
        <linearGradient x1="50%" y1="5.55111512e-15%" x2="50%" y2="155.58391%" id="linearGradient-1">
            <stop stop-color="#EDE2FF" offset="0%"></stop>
            <stop stop-color="#FFFFFF" offset="100%"></stop>
        </linearGradient>
        <linearGradient x1="50%" y1="-170.923195%" x2="50%" y2="596.066241%" id="linearGradient-2">
            <stop stop-color="#A762F2" offset="0%"></stop>
            <stop stop-color="#7C65F6" offset="100%"></stop>
        </linearGradient>
        <polygon id="path-3" points="118.224299 187.97075 157.632399 187.97075 157.632399 467.146252 118.224299 468"></polygon>
        <linearGradient x1="50%" y1="-61.2757241%" x2="50%" y2="100%" id="linearGradient-4">
            <stop stop-color="#C760EF" offset="0%"></stop>
            <stop stop-color="#7C65F6" offset="100%"></stop>
        </linearGradient>
        <linearGradient x1="50%" y1="-786.177885%" x2="50%" y2="3442.53305%" id="linearGradient-5">
            <stop stop-color="#A762F2" offset="0%"></stop>
            <stop stop-color="#7C65F6" offset="100%"></stop>
        </linearGradient>
        <linearGradient x1="50%" y1="100%" x2="50%" y2="-106.991264%" id="linearGradient-6">
            <stop stop-color="#EDE2FF" offset="0%"></stop>
            <stop stop-color="#FFFFFF" offset="100%"></stop>
        </linearGradient>
        <polygon id="path-7" points="43.6915888 156.382084 232.165109 156.382084 215.031153 199.923218 60.8255452 199.923218"></polygon>
        <linearGradient x1="100%" y1="50%" x2="-443.316832%" y2="50%" id="linearGradient-8">
            <stop stop-color="#A762F2" offset="0%"></stop>
            <stop stop-color="#7C65F6" offset="100%"></stop>
        </linearGradient>
        <linearGradient x1="50%" y1="155.58391%" x2="50%" y2="0%" id="linearGradient-9">
            <stop stop-color="#EDE2FF" offset="0%"></stop>
            <stop stop-color="#FFFFFF" offset="100%"></stop>
        </linearGradient>
        <polygon id="path-10" points="26.5576324 124.793419 86.5264798 107.718464 189.330218 107.718464 249.299065 124.793419 240.732087 168.334552 35.1246106 168.334552"></polygon>
        <linearGradient x1="50%" y1="-1006.91964%" x2="50%" y2="1593.45969%" id="linearGradient-11">
            <stop stop-color="#C760EF" offset="0%"></stop>
            <stop stop-color="#7C65F6" offset="100%"></stop>
        </linearGradient>
    </defs>
    <g id="Page-1" stroke="none" stroke-width="1" fill="none" fill-rule="evenodd">
        <g id="Group-2-Copy-2">
            <g id="Rectangle-7-Copy-6" transform="translate(137.928349, 327.985375) scale(-1, 1) translate(-137.928349, -327.985375) ">
                <use fill="url(#linearGradient-1)" fill-rule="evenodd" xlink:href="#path-3"></use>
                <path stroke="url(#linearGradient-2)" stroke-width="11.9699995" d="M124.209299,193.955749 L124.209299,461.883935 L151.647399,461.289509 L151.647399,193.955749 L124.209299,193.955749 Z"></path>
            </g>
            <path d="M81.0513624,193.955746 C96.7862863,227.156661 110.754535,292.4359 123.304091,390.402237 L123.352601,390.780924 L123.352601,462.015 L150.790701,462.015 L150.790701,390.765154 L150.843284,390.371094 C163.913954,292.418129 178.165421,227.147129 193.941734,193.955746 L81.0513646,193.955749 Z" id="Rectangle-7-Copy-6" stroke="url(#linearGradient-4)" stroke-width="11.9699995" transform="translate(137.500000, 327.985375) scale(-1, 1) translate(-137.500000, -327.985375) "></path>
            <rect id="Rectangle-3-Copy" fill="url(#linearGradient-5)" x="94.2367601" y="87.2285192" width="86.5264798" height="11.0987203"></rect>
            <g id="Rectangle-7-Copy-4" transform="translate(137.928349, 178.152651) scale(-1, 1) translate(-137.928349, -178.152651) ">
                <use fill="url(#linearGradient-6)" fill-rule="evenodd" xlink:href="#path-7"></use>
                <path stroke="url(#linearGradient-2)" stroke-width="11.9699995" d="M52.4784793,162.367084 L64.9020978,193.938218 L210.9546,193.938218 L223.378218,162.367084 L52.4784793,162.367084 Z"></path>
            </g>
            <rect id="Rectangle-3-Copy" fill="url(#linearGradient-8)" transform="translate(137.500000, 44.114260) rotate(-90.000000) translate(-137.500000, -44.114260) " x="94.2367601" y="38.5648995" width="86.5264798" height="11.0987203"></rect>
            <g id="Rectangle-7-Copy-5" transform="translate(137.928349, 138.026508) scale(-1, 1) translate(-137.928349, -138.026508) ">
                <use fill="url(#linearGradient-9)" fill-rule="evenodd" xlink:href="#path-10"></use>
                <path stroke="url(#linearGradient-2)" stroke-width="11.9699995" d="M33.4932207,129.041524 L40.0467743,162.349552 L235.809924,162.349552 L242.363477,129.041524 L188.494765,113.703464 L87.3619326,113.703464 L33.4932207,129.041524 Z"></path>
            </g>
            <rect id="Rectangle-3" fill="url(#linearGradient-11)" x="0" y="156.382084" width="275" height="11.952468"></rect>
            <rect id="Rectangle-3-Copy-2" fill="url(#linearGradient-11)" x="46.2616822" y="187.97075" width="182.476636" height="11.952468"></rect>
        </g>
    </g>
</svg>