<?xml version="1.0" encoding="UTF-8"?>
<svg width="430px" height="306px" viewBox="0 0 430 306" version="1.1" xmlns="http://www.w3.org/2000/svg" xmlns:xlink="http://www.w3.org/1999/xlink">
    <!-- Generator: Sketch 49.2 (51160) - http://www.bohemiancoding.com/sketch -->
    <title>sfbridge</title>
    <desc>Created with Sketch.</desc>
    <defs>
        <linearGradient x1="54.7878284%" y1="50%" x2="25.7678529%" y2="50%" id="linearGradient-1">
            <stop stop-color="#ED4646" offset="0%"></stop>
            <stop stop-color="#FF6262" offset="100%"></stop>
        </linearGradient>
        <linearGradient x1="50%" y1="0%" x2="50%" y2="100%" id="linearGradient-2">
            <stop stop-color="#F75757" offset="0%"></stop>
            <stop stop-color="#ED4646" offset="100%"></stop>
        </linearGradient>
        <linearGradient x1="50%" y1="28.0285347%" x2="50%" y2="100%" id="linearGradient-3">
            <stop stop-color="#EF4949" offset="0%"></stop>
            <stop stop-color="#F66565" offset="100%"></stop>
        </linearGradient>
        <linearGradient x1="50%" y1="100%" x2="50%" y2="3.061617e-15%" id="linearGradient-4">
            <stop stop-color="#FF6262" offset="0%"></stop>
            <stop stop-color="#EF4949" offset="100%"></stop>
        </linearGradient>
    </defs>
    <g id="Page-1" stroke="none" stroke-width="1" fill="none" fill-rule="evenodd">
        <g id="sfbridge" transform="translate(-113.000000, -32.000000)">
            <g id="gg-bridge-copy" transform="translate(293.000000, 169.162512) scale(-1, 1) translate(-293.000000, -169.162512) translate(0.000000, 0.162512)">
                <rect id="Rectangle-4-Copy" fill="#F66565" fill-rule="nonzero" transform="translate(281.177329, 306.163904) rotate(-90.000000) translate(-281.177329, -306.163904) " x="250.140172" y="297.870525" width="62.0743137" height="16.5867579"></rect>
                <rect id="Rectangle-4-Copy-2" fill="#F66565" fill-rule="nonzero" transform="translate(356.356220, 306.163904) rotate(-90.000000) translate(-356.356220, -306.163904) " x="325.319063" y="297.870525" width="62.0743137" height="16.5867579"></rect>
                <rect id="Rectangle-4" fill="url(#linearGradient-1)" fill-rule="nonzero" x="0" y="259.859206" width="585.037992" height="15.895643"></rect>
                <path d="M356.356221,267.807028 C470.441418,267.807028 562.925743,175.134934 562.925743,60.8181122" id="Oval" stroke="url(#linearGradient-2)" stroke-width="15.865208" transform="translate(459.640982, 164.312570) scale(-1, 1) translate(-459.640982, -164.312570) "></path>
                <path d="M281.17733,267.807028 C395.262527,267.807028 487.746852,175.134934 487.746852,60.8181122" id="Oval-Copy-2" stroke="url(#linearGradient-2)" stroke-width="15.865208" transform="translate(384.462091, 164.312570) scale(-1, 1) translate(-384.462091, -164.312570) "></path>
                <rect id="Rectangle-2" fill="url(#linearGradient-3)" fill-rule="nonzero" x="272.900754" y="33.8646306" width="91.7320415" height="226.685691"></rect>
                <rect id="Rectangle-3" fill="#FFFFFF" fill-rule="nonzero" x="289.453905" y="0" width="60.0051699" height="59.4358824" rx="8.27882447"></rect>
                <rect id="Rectangle-3-Copy" fill="#FFFFFF" fill-rule="nonzero" x="289.453905" y="83.6249042" width="60.0051699" height="76.0226403" rx="8.27882447"></rect>
                <rect id="Rectangle-3-Copy-2" fill="#FFFFFF" fill-rule="nonzero" x="289.453905" y="184.527681" width="60.0051699" height="76.0226403" rx="8.27882447"></rect>
                <path d="M74.2629501,267.807028 C188.348147,267.807028 280.832472,175.134934 280.832472,60.8181122" id="Oval" stroke="url(#linearGradient-4)" stroke-width="15.865208"></path>
                <path d="M149.441841,267.807028 C263.527038,267.807028 356.011363,175.134934 356.011363,60.8181122" id="Oval-Copy" stroke="url(#linearGradient-4)" stroke-width="15.865208"></path>
            </g>
        </g>
    </g>
</svg>